<svg width="74" height="74" clip-rule="evenodd" fill-rule="evenodd" image-rendering="optimizeQuality" shape-rendering="geometricPrecision" text-rendering="geometricPrecision" viewBox="0 0 74 73.988" xmlns="http://www.w3.org/2000/svg"><defs><style>.fil1{fill:#000}.fil0{fill:#1a1a1a}</style></defs><path fill="#1a1a1a" d="M0 36.992h37v37H0z"/><path d="M0-.008h37v37H0zm37 37h37v37H37z"/><path fill="#1a1a1a" d="M37-.008h37v37H37z"/><path class="fil0" d="M3.687.355A79.484 79.484 0 0 0 0 .418c-.095 15.572 6.129 25 17.751 32.283l1.049.657c6.45 4.04 10.59 3.728 18.2 3.678.34-14.377-5.144-25.63-19.939-33.689C12.612.923 8.137.383 3.687.357z" fill="#1a1a1a"/><path class="fil1" d="M70.313.352c1.235-.007 2.45.013 3.686.063.095 15.572-6.13 25-17.752 32.283l-1.048.657c-6.45 4.04-10.59 3.728-18.2 3.678-.34-14.377 5.144-25.63 19.938-33.689C61.387.92 65.863.38 70.313.354z"/><path class="fil0" d="M70.313 73.69c1.235.007 2.45-.014 3.686-.063.095-15.572-6.13-25.001-17.752-32.283l-1.048-.657c-6.45-4.04-10.59-3.728-18.2-3.679-.34 14.377 5.144 25.63 19.938 33.69 4.45 2.424 8.926 2.964 13.376 2.99z" fill="#1a1a1a"/><path class="fil1" d="M3.687 73.692A79.484 79.484 0 0 1 0 73.63c-.094-15.573 6.13-25.001 17.752-32.284l1.049-.656c6.45-4.04 10.59-3.728 18.2-3.679.34 14.377-5.144 25.63-19.939 33.69-4.45 2.424-8.925 2.964-13.375 2.99z"/></svg>