<svg xmlns="http://www.w3.org/2000/svg" version="1.1" xmlns:xlink="http://www.w3.org/1999/xlink" xmlns:svgjs="http://svgjs.dev/svgjs" viewBox="0 0 800 800"><defs><linearGradient x1="50%" y1="0%" x2="50%" y2="100%" id="ffflurry-grad" gradientTransform="rotate(270)"><stop stop-color="hsl(238, 82%, 13%)" stop-opacity="1" offset="0%"></stop><stop stop-color="hsl(1.4, 100%, 67%)" stop-opacity="1" offset="45%"></stop><stop stop-color="hsl(167, 52%, 78%)" stop-opacity="1" offset="100%"></stop></linearGradient></defs><rect width="100%" height="100%" fill="hsl(238, 82%, 13%)"></rect><g fill="url(#ffflurry-grad)"><rect width="213" height="3" x="657.5" y="548.5" rx="1.5" transform="rotate(45, 764, 550)" opacity="0.77"></rect><rect width="433" height="3" x="552.5" y="88.5" rx="1.5" transform="rotate(45, 769, 90)" opacity="0.67"></rect><rect width="220" height="3" x="132" y="168.5" rx="1.5" transform="rotate(45, 242, 170)" opacity="0.54"></rect><rect width="407" height="3" x="-128.5" y="443.5" rx="1.5" transform="rotate(45, 75, 445)" opacity="0.39"></rect><rect width="350" height="3" x="-141" y="314.5" rx="1.5" transform="rotate(45, 34, 316)" opacity="0.22"></rect><rect width="139" height="3" x="598.5" y="658.5" rx="1.5" transform="rotate(45, 668, 660)" opacity="0.09"></rect><rect width="606" height="3" x="439" y="751.5" rx="1.5" transform="rotate(45, 742, 753)" opacity="0.26"></rect><rect width="757" height="3" x="241.5" y="198.5" rx="1.5" transform="rotate(45, 620, 200)" opacity="0.42"></rect><rect width="685" height="3" x="-129.5" y="674.5" rx="1.5" transform="rotate(45, 213, 676)" opacity="0.23"></rect><rect width="259" height="3" x="114.5" y="243.5" rx="1.5" transform="rotate(45, 244, 245)" opacity="0.70"></rect><rect width="452" height="3" x="-67" y="207.5" rx="1.5" transform="rotate(45, 159, 209)" opacity="0.90"></rect><rect width="259" height="3" x="314.5" y="216.5" rx="1.5" transform="rotate(45, 444, 218)" opacity="0.47"></rect><rect width="498" height="3" x="380" y="439.5" rx="1.5" transform="rotate(45, 629, 441)" opacity="0.89"></rect><rect width="550" height="3" x="-175" y="650.5" rx="1.5" transform="rotate(45, 100, 652)" opacity="0.44"></rect><rect width="251" height="3" x="189.5" y="441.5" rx="1.5" transform="rotate(45, 315, 443)" opacity="0.59"></rect><rect width="84" height="3" x="725" y="655.5" rx="1.5" transform="rotate(45, 767, 657)" opacity="0.97"></rect><rect width="254" height="3" x="-50" y="565.5" rx="1.5" transform="rotate(45, 77, 567)" opacity="0.56"></rect><rect width="82" height="3" x="262" y="744.5" rx="1.5" transform="rotate(45, 303, 746)" opacity="0.34"></rect><rect width="294" height="3" x="37" y="758.5" rx="1.5" transform="rotate(45, 184, 760)" opacity="0.95"></rect><rect width="347" height="3" x="-118.5" y="211.5" rx="1.5" transform="rotate(45, 55, 213)" opacity="0.98"></rect><rect width="534" height="3" x="178" y="139.5" rx="1.5" transform="rotate(45, 445, 141)" opacity="0.07"></rect><rect width="681" height="3" x="38.5" y="499.5" rx="1.5" transform="rotate(45, 379, 501)" opacity="0.77"></rect><rect width="490" height="3" x="-4" y="512.5" rx="1.5" transform="rotate(45, 241, 514)" opacity="0.89"></rect><rect width="379" height="3" x="304.5" y="359.5" rx="1.5" transform="rotate(45, 494, 361)" opacity="0.94"></rect><rect width="290" height="3" x="438" y="768.5" rx="1.5" transform="rotate(45, 583, 770)" opacity="0.50"></rect><rect width="444" height="3" x="-118" y="293.5" rx="1.5" transform="rotate(45, 104, 295)" opacity="0.37"></rect><rect width="90" height="3" x="360" y="289.5" rx="1.5" transform="rotate(45, 405, 291)" opacity="0.90"></rect><rect width="192" height="3" x="166" y="69.5" rx="1.5" transform="rotate(45, 262, 71)" opacity="0.72"></rect><rect width="513" height="3" x="219.5" y="497.5" rx="1.5" transform="rotate(45, 476, 499)" opacity="0.85"></rect><rect width="143" height="3" x="695.5" y="432.5" rx="1.5" transform="rotate(45, 767, 434)" opacity="0.99"></rect><rect width="512" height="3" x="-125" y="126.5" rx="1.5" transform="rotate(45, 131, 128)" opacity="0.71"></rect><rect width="371" height="3" x="138.5" y="222.5" rx="1.5" transform="rotate(45, 324, 224)" opacity="0.70"></rect><rect width="365" height="3" x="-157.5" y="621.5" rx="1.5" transform="rotate(45, 25, 623)" opacity="0.16"></rect><rect width="498" height="3" x="423" y="507.5" rx="1.5" transform="rotate(45, 672, 509)" opacity="0.66"></rect><rect width="499" height="3" x="-73.5" y="352.5" rx="1.5" transform="rotate(45, 176, 354)" opacity="0.69"></rect><rect width="607" height="3" x="132.5" y="658.5" rx="1.5" transform="rotate(45, 436, 660)" opacity="0.17"></rect><rect width="114" height="3" x="486" y="140.5" rx="1.5" transform="rotate(45, 543, 142)" opacity="0.67"></rect><rect width="543" height="3" x="316.5" y="310.5" rx="1.5" transform="rotate(45, 588, 312)" opacity="0.86"></rect><rect width="460" height="3" x="-67" y="588.5" rx="1.5" transform="rotate(45, 163, 590)" opacity="0.83"></rect><rect width="329" height="3" x="538.5" y="62.5" rx="1.5" transform="rotate(45, 703, 64)" opacity="0.89"></rect><rect width="219" height="3" x="545.5" y="729.5" rx="1.5" transform="rotate(45, 655, 731)" opacity="0.42"></rect><rect width="258" height="3" x="380" y="266.5" rx="1.5" transform="rotate(45, 509, 268)" opacity="0.27"></rect><rect width="421" height="3" x="473.5" y="576.5" rx="1.5" transform="rotate(45, 684, 578)" opacity="0.34"></rect><rect width="328" height="3" x="294" y="428.5" rx="1.5" transform="rotate(45, 458, 430)" opacity="0.57"></rect><rect width="52" height="3" x="381" y="42.5" rx="1.5" transform="rotate(45, 407, 44)" opacity="0.45"></rect><rect width="656" height="3" x="412" y="211.5" rx="1.5" transform="rotate(45, 740, 213)" opacity="0.38"></rect><rect width="717" height="3" x="-307.5" y="72.5" rx="1.5" transform="rotate(45, 51, 74)" opacity="0.67"></rect><rect width="455" height="3" x="-54.5" y="31.5" rx="1.5" transform="rotate(45, 173, 33)" opacity="0.38"></rect><rect width="293" height="3" x="155.5" y="316.5" rx="1.5" transform="rotate(45, 302, 318)" opacity="0.31"></rect><rect width="198" height="3" x="89" y="281.5" rx="1.5" transform="rotate(45, 188, 283)" opacity="0.40"></rect><rect width="113" height="3" x="552.5" y="54.5" rx="1.5" transform="rotate(45, 609, 56)" opacity="0.08"></rect><rect width="142" height="3" x="521" y="671.5" rx="1.5" transform="rotate(45, 592, 673)" opacity="0.67"></rect><rect width="304" height="3" x="561" y="634.5" rx="1.5" transform="rotate(45, 713, 636)" opacity="0.47"></rect><rect width="236" height="3" x="241" y="153.5" rx="1.5" transform="rotate(45, 359, 155)" opacity="0.34"></rect><rect width="83" height="3" x="521.5" y="408.5" rx="1.5" transform="rotate(45, 563, 410)" opacity="0.93"></rect><rect width="295" height="3" x="191.5" y="93.5" rx="1.5" transform="rotate(45, 339, 95)" opacity="0.50"></rect><rect width="189" height="3" x="118.5" y="110.5" rx="1.5" transform="rotate(45, 213, 112)" opacity="0.83"></rect><rect width="498" height="3" x="-135" y="384.5" rx="1.5" transform="rotate(45, 114, 386)" opacity="0.63"></rect><rect width="237" height="3" x="-56.5" y="739.5" rx="1.5" transform="rotate(45, 62, 741)" opacity="0.11"></rect><rect width="186" height="3" x="224" y="26.5" rx="1.5" transform="rotate(45, 317, 28)" opacity="0.73"></rect><rect width="270" height="3" x="572" y="395.5" rx="1.5" transform="rotate(45, 707, 397)" opacity="0.31"></rect><rect width="280" height="3" x="196" y="627.5" rx="1.5" transform="rotate(45, 336, 629)" opacity="0.62"></rect><rect width="337" height="3" x="267.5" y="575.5" rx="1.5" transform="rotate(45, 436, 577)" opacity="0.64"></rect><rect width="166" height="3" x="413" y="46.5" rx="1.5" transform="rotate(45, 496, 48)" opacity="0.85"></rect><rect width="213" height="3" x="307.5" y="751.5" rx="1.5" transform="rotate(45, 414, 753)" opacity="0.80"></rect><rect width="153" height="3" x="187.5" y="579.5" rx="1.5" transform="rotate(45, 264, 581)" opacity="0.44"></rect><rect width="380" height="3" x="324" y="710.5" rx="1.5" transform="rotate(45, 514, 712)" opacity="0.89"></rect><rect width="477" height="3" x="352.5" y="594.5" rx="1.5" transform="rotate(45, 591, 596)" opacity="0.98"></rect><rect width="436" height="3" x="486" y="310.5" rx="1.5" transform="rotate(45, 704, 312)" opacity="0.15"></rect><rect width="58" height="3" x="173" y="444.5" rx="1.5" transform="rotate(45, 202, 446)" opacity="0.23"></rect><rect width="132" height="3" x="495" y="496.5" rx="1.5" transform="rotate(45, 561, 498)" opacity="0.17"></rect><rect width="340" height="3" x="81" y="375.5" rx="1.5" transform="rotate(45, 251, 377)" opacity="0.17"></rect><rect width="159" height="3" x="305.5" y="372.5" rx="1.5" transform="rotate(45, 385, 374)" opacity="0.85"></rect><rect width="593" height="3" x="-166.5" y="500.5" rx="1.5" transform="rotate(45, 130, 502)" opacity="0.41"></rect><rect width="348" height="3" x="-148" y="397.5" rx="1.5" transform="rotate(45, 26, 399)" opacity="0.81"></rect><rect width="168" height="3" x="-53" y="507.5" rx="1.5" transform="rotate(45, 31, 509)" opacity="0.43"></rect><rect width="222" height="3" x="412" y="570.5" rx="1.5" transform="rotate(45, 523, 572)" opacity="0.38"></rect></g></svg>