<svg id="visual" viewBox="0 0 1900 500" width="1900" height="500" xmlns="http://www.w3.org/2000/svg" xmlns:xlink="http://www.w3.org/1999/xlink" version="1.1"><path d="M0 402L18.7 405C37.3 408 74.7 414 112 407.5C149.3 401 186.7 382 223.8 376.8C261 371.7 298 380.3 335.2 385.2C372.3 390 409.7 391 447 391.8C484.3 392.7 521.7 393.3 559 395C596.3 396.7 633.7 399.3 670.8 401.5C708 403.7 745 405.3 782.2 400C819.3 394.7 856.7 382.3 894 377.3C931.3 372.3 968.7 374.7 1006 373.5C1043.3 372.3 1080.7 367.7 1117.8 367.8C1155 368 1192 373 1229.2 381.7C1266.3 390.3 1303.7 402.7 1341 407.7C1378.3 412.7 1415.7 410.3 1453 403.2C1490.3 396 1527.7 384 1564.8 377.7C1602 371.3 1639 370.7 1676.2 371C1713.3 371.3 1750.7 372.7 1788 373.2C1825.3 373.7 1862.7 373.3 1881.3 373.2L1900 373L1900 501L1881.3 501C1862.7 501 1825.3 501 1788 501C1750.7 501 1713.3 501 1676.2 501C1639 501 1602 501 1564.8 501C1527.7 501 1490.3 501 1453 501C1415.7 501 1378.3 501 1341 501C1303.7 501 1266.3 501 1229.2 501C1192 501 1155 501 1117.8 501C1080.7 501 1043.3 501 1006 501C968.7 501 931.3 501 894 501C856.7 501 819.3 501 782.2 501C745 501 708 501 670.8 501C633.7 501 596.3 501 559 501C521.7 501 484.3 501 447 501C409.7 501 372.3 501 335.2 501C298 501 261 501 223.8 501C186.7 501 149.3 501 112 501C74.7 501 37.3 501 18.7 501L0 501Z" fill="#323232"></path><path d="M0 443L18.7 435C37.3 427 74.7 411 112 408C149.3 405 186.7 415 223.8 417.3C261 419.7 298 414.3 335.2 414C372.3 413.7 409.7 418.3 447 416.8C484.3 415.3 521.7 407.7 559 410.7C596.3 413.7 633.7 427.3 670.8 428.2C708 429 745 417 782.2 409.5C819.3 402 856.7 399 894 397.3C931.3 395.7 968.7 395.3 1006 400.2C1043.3 405 1080.7 415 1117.8 417.7C1155 420.3 1192 415.7 1229.2 413.2C1266.3 410.7 1303.7 410.3 1341 415.5C1378.3 420.7 1415.7 431.3 1453 436.7C1490.3 442 1527.7 442 1564.8 437.7C1602 433.3 1639 424.7 1676.2 424.2C1713.3 423.7 1750.7 431.3 1788 433.2C1825.3 435 1862.7 431 1881.3 429L1900 427L1900 501L1881.3 501C1862.7 501 1825.3 501 1788 501C1750.7 501 1713.3 501 1676.2 501C1639 501 1602 501 1564.8 501C1527.7 501 1490.3 501 1453 501C1415.7 501 1378.3 501 1341 501C1303.7 501 1266.3 501 1229.2 501C1192 501 1155 501 1117.8 501C1080.7 501 1043.3 501 1006 501C968.7 501 931.3 501 894 501C856.7 501 819.3 501 782.2 501C745 501 708 501 670.8 501C633.7 501 596.3 501 559 501C521.7 501 484.3 501 447 501C409.7 501 372.3 501 335.2 501C298 501 261 501 223.8 501C186.7 501 149.3 501 112 501C74.7 501 37.3 501 18.7 501L0 501Z" fill="#707070"></path><path d="M0 429L18.7 428.5C37.3 428 74.7 427 112 431.5C149.3 436 186.7 446 223.8 452.5C261 459 298 462 335.2 457.5C372.3 453 409.7 441 447 440.3C484.3 439.7 521.7 450.3 559 453.5C596.3 456.7 633.7 452.3 670.8 445.8C708 439.3 745 430.7 782.2 427.7C819.3 424.7 856.7 427.3 894 427.2C931.3 427 968.7 424 1006 422.5C1043.3 421 1080.7 421 1117.8 427C1155 433 1192 445 1229.2 447.8C1266.3 450.7 1303.7 444.3 1341 441.8C1378.3 439.3 1415.7 440.7 1453 443.2C1490.3 445.7 1527.7 449.3 1564.8 446.5C1602 443.7 1639 434.3 1676.2 435.2C1713.3 436 1750.7 447 1788 446.7C1825.3 446.3 1862.7 434.7 1881.3 428.8L1900 423L1900 501L1881.3 501C1862.7 501 1825.3 501 1788 501C1750.7 501 1713.3 501 1676.2 501C1639 501 1602 501 1564.8 501C1527.7 501 1490.3 501 1453 501C1415.7 501 1378.3 501 1341 501C1303.7 501 1266.3 501 1229.2 501C1192 501 1155 501 1117.8 501C1080.7 501 1043.3 501 1006 501C968.7 501 931.3 501 894 501C856.7 501 819.3 501 782.2 501C745 501 708 501 670.8 501C633.7 501 596.3 501 559 501C521.7 501 484.3 501 447 501C409.7 501 372.3 501 335.2 501C298 501 261 501 223.8 501C186.7 501 149.3 501 112 501C74.7 501 37.3 501 18.7 501L0 501Z" fill="#b5b5b5"></path><path d="M0 482L18.7 480.5C37.3 479 74.7 476 112 476.7C149.3 477.3 186.7 481.7 223.8 481.2C261 480.7 298 475.3 335.2 469.8C372.3 464.3 409.7 458.7 447 459C484.3 459.3 521.7 465.7 559 470.2C596.3 474.7 633.7 477.3 670.8 474.8C708 472.3 745 464.7 782.2 462.7C819.3 460.7 856.7 464.3 894 464.7C931.3 465 968.7 462 1006 461.3C1043.3 460.7 1080.7 462.3 1117.8 466.3C1155 470.3 1192 476.7 1229.2 480.8C1266.3 485 1303.7 487 1341 483C1378.3 479 1415.7 469 1453 467.2C1490.3 465.3 1527.7 471.7 1564.8 474.2C1602 476.7 1639 475.3 1676.2 470.5C1713.3 465.7 1750.7 457.3 1788 456.2C1825.3 455 1862.7 461 1881.3 464L1900 467L1900 501L1881.3 501C1862.7 501 1825.3 501 1788 501C1750.7 501 1713.3 501 1676.2 501C1639 501 1602 501 1564.8 501C1527.7 501 1490.3 501 1453 501C1415.7 501 1378.3 501 1341 501C1303.7 501 1266.3 501 1229.2 501C1192 501 1155 501 1117.8 501C1080.7 501 1043.3 501 1006 501C968.7 501 931.3 501 894 501C856.7 501 819.3 501 782.2 501C745 501 708 501 670.8 501C633.7 501 596.3 501 559 501C521.7 501 484.3 501 447 501C409.7 501 372.3 501 335.2 501C298 501 261 501 223.8 501C186.7 501 149.3 501 112 501C74.7 501 37.3 501 18.7 501L0 501Z" fill="#ffffff"></path></svg>