<svg width="1439" height="556" viewBox="0 0 1439 556" fill="none" xmlns="http://www.w3.org/2000/svg">
<g clip-path="url(#clip0_6_5)">
<path d="M0 454.067L23.9833 446.839C47.9667 439.518 95.9333 425.062 143.9 424.691C191.867 424.413 239.833 438.313 287.8 441.279C335.767 444.151 383.733 436.182 431.7 425.803C479.667 415.425 527.633 402.822 575.6 406.621C623.567 410.513 671.533 430.9 719.5 436.275C767.467 441.742 815.433 432.105 863.4 420.985C911.367 409.865 959.333 397.262 1007.3 397.262C1055.27 397.262 1103.23 409.865 1151.2 410.328C1199.17 410.791 1247.13 399.115 1295.1 396.428C1343.07 393.833 1391.03 400.32 1415.02 403.563L1439 406.807V556.927H1415.02C1391.03 556.927 1343.07 556.927 1295.1 556.927C1247.13 556.927 1199.17 556.927 1151.2 556.927C1103.23 556.927 1055.27 556.927 1007.3 556.927C959.333 556.927 911.367 556.927 863.4 556.927C815.433 556.927 767.467 556.927 719.5 556.927C671.533 556.927 623.567 556.927 575.6 556.927C527.633 556.927 479.667 556.927 431.7 556.927C383.733 556.927 335.767 556.927 287.8 556.927C239.833 556.927 191.867 556.927 143.9 556.927C95.9333 556.927 47.9667 556.927 23.9833 556.927H0V454.067Z" fill="#484848"/>
<path d="M0 465.187L23.9833 467.689C47.9667 470.098 95.9333 475.102 143.9 467.689C191.867 460.275 239.833 440.445 287.8 439.055C335.767 437.665 383.733 454.715 431.7 459.812C479.667 464.909 527.633 458.051 575.6 447.302C623.567 436.46 671.533 421.633 719.5 415.425C767.467 409.309 815.433 411.718 863.4 416.351C911.367 420.985 959.333 427.842 1007.3 438.962C1055.27 450.082 1103.23 465.465 1151.2 465.187C1199.17 464.909 1247.13 448.785 1295.1 439.889C1343.07 430.9 1391.03 429.047 1415.02 428.12L1439 427.193V556.927H1415.02C1391.03 556.927 1343.07 556.927 1295.1 556.927C1247.13 556.927 1199.17 556.927 1151.2 556.927C1103.23 556.927 1055.27 556.927 1007.3 556.927C959.333 556.927 911.367 556.927 863.4 556.927C815.433 556.927 767.467 556.927 719.5 556.927C671.533 556.927 623.567 556.927 575.6 556.927C527.633 556.927 479.667 556.927 431.7 556.927C383.733 556.927 335.767 556.927 287.8 556.927C239.833 556.927 191.867 556.927 143.9 556.927C95.9333 556.927 47.9667 556.927 23.9833 556.927H0V465.187Z" fill="#808080"/>
<path d="M0 452.213L23.9833 461.665C47.9667 471.025 95.9333 489.929 143.9 489.929C191.867 489.929 239.833 471.025 287.8 461.758C335.767 452.491 383.733 452.862 431.7 460.553C479.667 468.245 527.633 483.442 575.6 484.832C623.567 486.222 671.533 473.805 719.5 470.561C767.467 467.318 815.433 473.249 863.4 481.218C911.367 489.28 959.333 499.473 1007.3 496.879C1055.27 494.191 1103.23 478.809 1151.2 474.639C1199.17 470.469 1247.13 477.511 1295.1 477.882C1343.07 478.16 1391.03 471.673 1415.02 468.43L1439 465.187V556.927H1415.02C1391.03 556.927 1343.07 556.927 1295.1 556.927C1247.13 556.927 1199.17 556.927 1151.2 556.927C1103.23 556.927 1055.27 556.927 1007.3 556.927C959.333 556.927 911.367 556.927 863.4 556.927C815.433 556.927 767.467 556.927 719.5 556.927C671.533 556.927 623.567 556.927 575.6 556.927C527.633 556.927 479.667 556.927 431.7 556.927C383.733 556.927 335.767 556.927 287.8 556.927C239.833 556.927 191.867 556.927 143.9 556.927C95.9333 556.927 47.9667 556.927 23.9833 556.927H0V452.213Z" fill="#BDBDBD"/>
<path d="M0 508.74L23.9833 509.389C47.9667 509.945 95.9333 511.242 143.9 513.651C191.867 516.153 239.833 519.86 287.8 522.177C335.767 524.493 383.733 525.42 431.7 526.81C479.667 528.2 527.633 530.053 575.6 527.922C623.567 525.698 671.533 519.582 719.5 511.705C767.467 503.829 815.433 494.191 863.4 495.025C911.367 495.767 959.333 506.887 1007.3 509.018C1055.27 511.242 1103.23 504.385 1151.2 506.423C1199.17 508.462 1247.13 519.211 1295.1 517.265C1343.07 515.227 1391.03 500.4 1415.02 492.987L1439 485.573V556.927H1415.02C1391.03 556.927 1343.07 556.927 1295.1 556.927C1247.13 556.927 1199.17 556.927 1151.2 556.927C1103.23 556.927 1055.27 556.927 1007.3 556.927C959.333 556.927 911.367 556.927 863.4 556.927C815.433 556.927 767.467 556.927 719.5 556.927C671.533 556.927 623.567 556.927 575.6 556.927C527.633 556.927 479.667 556.927 431.7 556.927C383.733 556.927 335.767 556.927 287.8 556.927C239.833 556.927 191.867 556.927 143.9 556.927C95.9333 556.927 47.9667 556.927 23.9833 556.927H0V508.74Z" fill="white"/>
</g>
<defs>
<clipPath id="clip0_6_5">
<rect width="1439" height="556" fill="white"/>
</clipPath>
</defs>
</svg>
